<?xml version="1.0" encoding="UTF-8"?><!DOCTYPE svg PUBLIC "-//W3C//DTD SVG 1.1//EN" "http://www.w3.org/Graphics/SVG/1.1/DTD/svg11.dtd"><svg xmlns="http://www.w3.org/2000/svg"><symbol id="easy" viewBox="441.1 180 80 80"><path fill="#cbcbcb" d="M441.1 180h80v80h-80z"/><g fill="#fff"><path d="M493 203.3c-.7-.5 3.9-7.8 3.9-7.8.5-.7 1.5-.8 2.2-.3.7.5.8 1.5.3 2.2 0 0-5.7 6.4-6.4 5.9zM488.6 200.1c-.8-.1-.5-8.7-.5-8.7.1-.8.9-1.4 1.7-1.3.8.1 1.5.9 1.3 1.7.1 0-1.6 8.4-2.5 8.3zM483.4 201.9c-.8.3-4.8-7.3-4.8-7.3-.3-.8 0-1.7.8-2 .8-.3 1.7 0 2 .8.1 0 2.8 8.2 2 8.5z"/><path d="M482.2 250c1.7-1.4 3.5-2.7 5.5-3.9 3-1.9 6.1-3.5 9.1-4.6 2.9-5.3 1.5-11.7-1.4-16.5.7-4.8 1.3-8.5 6.8-10.7 2.1-.8 2.5-2.7 1.5-4.4-1-1.7-4-2-6.1-1.1-2.6 1.1-4.7 2.4-5.7 4h-.3c-.1.1-.4.2-.5.3-.5.5-1.8 1.5-3.2 1.5-1.3 0-2.4-.9-2.8-1.3-6-6.9-12.9-13.4-18.3-17.1-1.8-1.2-4.4-.9-5.7.7-1.4 1.6-1 3.9.8 5.1 4.2 2.9 8.9 7.9 13.2 13.4-.4-.3-.8-.5-1.1-.8-1.9-1.3-4.5-1.6-6.2-.1-1.7 1.5-1.7 4 0 5.5.4.4.9.8 1.4 1.3-1-.6-2.5-.7-3.6-.6-1 .1-2 .5-2.8 1.2-1.7 1.5-1.6 4 .1 5.5.3.3.7.6 1.1.9-.9-.3-1.9-.3-2.7-.2-1 .1-1.9.6-2.6 1.4-1.5 1.7-.9 3.8.7 5.5 1.2 1.3 2.3 2.5 3.3 3.6 6.4 6.5 12.3 11.7 19.5 11.4z"/></g></symbol><symbol id="fast" viewBox="190.5 190.5 80 80"><path fill="#cbcbcb" d="M190.5 190.5h80v80h-80z"/><path d="M201.5 257.7s6-5.3 8.3-7.6l.2-.2c7 2.6 21.1-3.4 33.7-14.6.4-.3.3-.2.7-.5l-13.5-3 17.5-1.1.2-.2c13.3-12.4 10.8-27.2 10.8-27.2s-16.5.2-30.3 8.2l-1 13.1-3.3-10.1c-.9.6-1.2.8-2 1.6-2.9 2.6-5 4.8-7.3 7.4l1.5 10.1-4.8-6.1c-6.1 8.5-8.3 16.5-5.1 20.5-.4.5-.7 1-1.1 1.5-3 4.6-4.5 8.2-4.5 8.2zm8-10.1s16.8-26.3 45.6-37.8c0 0-25.9 13.8-45.6 37.8z" fill="#fff"/></symbol><symbol id="js" viewBox="88 88 80 80"><path d="M88 88h80v80H88V88z" fill="#cbcbcb"/><path d="M109 154.9l6.1-3.7c1.2 2.1 2.3 3.9 4.8 3.9s4-1 4-4.7v-25.6h7.5v25.7c0 7.8-4.6 11.3-11.2 11.3-5.9-.1-9.4-3.2-11.2-6.9M135.6 154l6.1-3.5c1.6 2.6 3.7 4.6 7.4 4.6 3.1 0 5.1-1.6 5.1-3.7 0-2.6-2-3.5-5.5-5l-1.9-.8c-5.4-2.3-9-5.2-9-11.3 0-5.6 4.3-9.9 11-9.9 4.8 0 8.2 1.7 10.7 6l-5.9 3.8c-1.3-2.3-2.7-3.2-4.8-3.2-2.2 0-3.6 1.4-3.6 3.2 0 2.3 1.4 3.2 4.6 4.6l1.9.8c6.4 2.7 10 5.5 10 11.8 0 6.8-5.3 10.5-12.5 10.5-6.9-.2-11.4-3.5-13.6-7.9" fill="#fff"/></symbol></svg>