<?xml version="1.0" encoding="UTF-8"?><!DOCTYPE svg PUBLIC "-//W3C//DTD SVG 1.1//EN" "http://www.w3.org/Graphics/SVG/1.1/DTD/svg11.dtd"><svg xmlns="http://www.w3.org/2000/svg"><symbol id="easy" viewBox="0 0 80 80"><style>.st0{fill:#fff}</style><path class="st0" d="M0 0v80h80V0H0zm55.8 15.5c.5-.7 1.5-.8 2.2-.3s.8 1.5.3 2.2c0 0-5.7 6.4-6.4 5.9s3.9-7.8 3.9-7.8zM47 11.4c.1-.8.9-1.4 1.7-1.3.8.1 1.5.9 1.3 1.7.1 0-1.6 8.4-2.5 8.3-.8-.1-.5-8.7-.5-8.7zm-8.7 1.2c.8-.3 1.7 0 2 .8.1 0 2.8 8.2 2 8.5-.8.3-4.8-7.3-4.8-7.3-.3-.8 0-1.7.8-2zm22.8 21.7c-5.5 2.2-6.1 5.9-6.8 10.7 2.9 4.8 4.3 11.2 1.4 16.5-3 1.1-6.1 2.7-9.1 4.6-2 1.2-3.8 2.5-5.5 3.9-7.2.3-13.1-4.9-19.5-11.4-1-1.1-2.1-2.3-3.3-3.6-1.6-1.7-2.2-3.8-.7-5.5.7-.8 1.6-1.3 2.6-1.4.8-.1 1.8-.1 2.7.2-.4-.3-.8-.6-1.1-.9-1.7-1.5-1.8-4-.1-5.5.8-.7 1.8-1.1 2.8-1.2 1.1-.1 2.6 0 3.6.6-.5-.5-1-.9-1.4-1.3-1.7-1.5-1.7-4 0-5.5s4.3-1.2 6.2.1c.3.3.7.5 1.1.8-4.3-5.5-9-10.5-13.2-13.4-1.8-1.2-2.2-3.5-.8-5.1 1.3-1.6 3.9-1.9 5.7-.7C31.1 19.9 38 26.4 44 33.3c.4.4 1.5 1.3 2.8 1.3 1.4 0 2.7-1 3.2-1.5.1-.1.4-.2.5-.3h.3c1-1.6 3.1-2.9 5.7-4 2.1-.9 5.1-.6 6.1 1.1 1 1.7.6 3.6-1.5 4.4z"/></symbol><symbol id="fast" viewBox="0 0 80 80"><style>.st0{fill:#fff}</style><path class="st0" d="M19 57.1c19.7-24 45.6-37.8 45.6-37.8C35.8 30.8 19 57.1 19 57.1z"/><path class="st0" d="M0 0v80h80V0H0zm58.1 40l-.2.2-17.5 1.1 13.5 3c-.4.3-.3.2-.7.5C40.6 56 26.5 62 19.5 59.4l-.2.2C17 61.9 11 67.2 11 67.2s1.5-3.6 4.5-8.2c.4-.5.7-1 1.1-1.5-3.2-4-1-12 5.1-20.5l4.8 6.1L25 33c2.3-2.6 4.4-4.8 7.3-7.4.8-.8 1.1-1 2-1.6l3.3 10.1 1-13.1c13.8-8 30.3-8.2 30.3-8.2S71.4 27.6 58.1 40z"/></symbol><symbol id="js" viewBox="0 0 80 80"><style>.st0{fill:#fff}</style><path class="st0" d="M0 0v80h80V0H0zm43.4 62.5c0 7.8-4.6 11.3-11.2 11.3-5.9-.1-9.4-3.2-11.2-6.9l6.1-3.7c1.2 2.1 2.3 3.9 4.8 3.9s4-1 4-4.7V36.8h7.5v25.7zm17.8 11.4c-6.9-.2-11.4-3.5-13.6-7.9l6.1-3.5c1.6 2.6 3.7 4.6 7.4 4.6 3.1 0 5.1-1.6 5.1-3.7 0-2.6-2-3.5-5.5-5l-1.9-.8c-5.4-2.3-9-5.2-9-11.3 0-5.6 4.3-9.9 11-9.9 4.8 0 8.2 1.7 10.7 6l-5.9 3.8c-1.3-2.3-2.7-3.2-4.8-3.2-2.2 0-3.6 1.4-3.6 3.2 0 2.3 1.4 3.2 4.6 4.6l1.9.8c6.4 2.7 10 5.5 10 11.8 0 6.8-5.3 10.5-12.5 10.5z"/></symbol></svg>