<?xml version="1.0" encoding="utf-8"?>
<!-- Generator: Adobe Illustrator 18.0.0, SVG Export Plug-In . SVG Version: 6.00 Build 0)  -->
<!DOCTYPE svg PUBLIC "-//W3C//DTD SVG 1.1//EN" "http://www.w3.org/Graphics/SVG/1.1/DTD/svg11.dtd">
<svg version="1.1" id="Layer_1" xmlns="http://www.w3.org/2000/svg" xmlns:xlink="http://www.w3.org/1999/xlink" x="0px" y="0px"
	 viewBox="441.1 180 80 80" style="enable-background:new 441.1 180 80 80;" xml:space="preserve">
<rect x="441.1" y="180" style="fill:#CBCBCB;" width="80" height="80"/>
<g>
	<path style="fill:#FFFFFF;" d="M493,203.3L493,203.3c-0.7-0.5,3.9-7.8,3.9-7.8c0.5-0.7,1.5-0.8,2.2-0.3l0,0
		c0.7,0.5,0.8,1.5,0.3,2.2C499.4,197.4,493.7,203.8,493,203.3z"/>
	<path style="fill:#FFFFFF;" d="M488.6,200.1L488.6,200.1c-0.8-0.1-0.5-8.7-0.5-8.7c0.1-0.8,0.9-1.4,1.7-1.3l0,0
		c0.8,0.1,1.5,0.9,1.3,1.7C491.2,191.8,489.5,200.2,488.6,200.1z"/>
	<path style="fill:#FFFFFF;" d="M483.4,201.9L483.4,201.9c-0.8,0.3-4.8-7.3-4.8-7.3c-0.3-0.8,0-1.7,0.8-2l0,0c0.8-0.3,1.7,0,2,0.8
		C481.5,193.4,484.2,201.6,483.4,201.9z"/>
	<path style="fill:#FFFFFF;" d="M482.2,250c1.7-1.4,3.5-2.7,5.5-3.9c3-1.9,6.1-3.5,9.1-4.6c2.9-5.3,1.5-11.7-1.4-16.5
		c0.7-4.8,1.3-8.5,6.8-10.7c2.1-0.8,2.5-2.7,1.5-4.4c-1-1.7-4-2-6.1-1.1c-2.6,1.1-4.7,2.4-5.7,4v0c0,0-0.3,0-0.3,0
		c-0.1,0.1-0.4,0.2-0.5,0.3c-0.5,0.5-1.8,1.5-3.2,1.5c-1.3,0-2.4-0.9-2.8-1.3c-6-6.9-12.9-13.4-18.3-17.1c-1.8-1.2-4.4-0.9-5.7,0.7
		c-1.4,1.6-1,3.9,0.8,5.1c4.2,2.9,8.9,7.9,13.2,13.4c-0.4-0.3-0.8-0.5-1.1-0.8c-1.9-1.3-4.5-1.6-6.2-0.1c-1.7,1.5-1.7,4,0,5.5
		c0.4,0.4,0.9,0.8,1.4,1.3c-1-0.6-2.5-0.7-3.6-0.6c-1,0.1-2,0.5-2.8,1.2c-1.7,1.5-1.6,4,0.1,5.5c0.3,0.3,0.7,0.6,1.1,0.9
		c-0.9-0.3-1.9-0.3-2.7-0.2c-1,0.1-1.9,0.6-2.6,1.4c-1.5,1.7-0.9,3.8,0.7,5.5c1.2,1.3,2.3,2.5,3.3,3.6l0,0
		C469.1,245.1,475,250.3,482.2,250z"/>
</g>
</svg>
