<?xml version="1.0" encoding="utf-8"?>
<!-- Generator: Adobe Illustrator 19.2.1, SVG Export Plug-In . SVG Version: 6.00 Build 0)  -->
<svg version="1.1" id="Layer_1" xmlns="http://www.w3.org/2000/svg" xmlns:xlink="http://www.w3.org/1999/xlink" x="0px" y="0px"
	 width="80px" height="80px" viewBox="0 0 80 80" style="enable-background:new 0 0 80 80;" xml:space="preserve">
<style type="text/css">
	.st0{fill:#FFFFFF;}
</style>
<path class="st0" d="M0,0v80h80V0H0z M55.8,15.5c0.5-0.7,1.5-0.8,2.2-0.3s0.8,1.5,0.3,2.2c0,0-5.7,6.4-6.4,5.9S55.8,15.5,55.8,15.5z
	 M47,11.4c0.1-0.8,0.9-1.4,1.7-1.3c0.8,0.1,1.5,0.9,1.3,1.7c0.1,0-1.6,8.4-2.5,8.3C46.7,20,47,11.4,47,11.4z M38.3,12.6
	c0.8-0.3,1.7,0,2,0.8c0.1,0,2.8,8.2,2,8.5c-0.8,0.3-4.8-7.3-4.8-7.3C37.2,13.8,37.5,12.9,38.3,12.6z M61.1,34.3
	c-5.5,2.2-6.1,5.9-6.8,10.7c2.9,4.8,4.3,11.2,1.4,16.5c-3,1.1-6.1,2.7-9.1,4.6c-2,1.2-3.8,2.5-5.5,3.9c-7.2,0.3-13.1-4.9-19.5-11.4
	c-1-1.1-2.1-2.3-3.3-3.6c-1.6-1.7-2.2-3.8-0.7-5.5c0.7-0.8,1.6-1.3,2.6-1.4C21,48,22,48,22.9,48.3c-0.4-0.3-0.8-0.6-1.1-0.9
	c-1.7-1.5-1.8-4-0.1-5.5c0.8-0.7,1.8-1.1,2.8-1.2c1.1-0.1,2.6,0,3.6,0.6c-0.5-0.5-1-0.9-1.4-1.3c-1.7-1.5-1.7-4,0-5.5
	s4.3-1.2,6.2,0.1c0.3,0.3,0.7,0.5,1.1,0.8c-4.3-5.5-9-10.5-13.2-13.4c-1.8-1.2-2.2-3.5-0.8-5.1c1.3-1.6,3.9-1.9,5.7-0.7
	C31.1,19.9,38,26.4,44,33.3c0.4,0.4,1.5,1.3,2.8,1.3c1.4,0,2.7-1,3.2-1.5c0.1-0.1,0.4-0.2,0.5-0.3h0.3c1-1.6,3.1-2.9,5.7-4
	c2.1-0.9,5.1-0.6,6.1,1.1C63.6,31.6,63.2,33.5,61.1,34.3z"/>
</svg>
