<?xml version="1.0" encoding="utf-8"?>
<!-- Generator: Adobe Illustrator 18.0.0, SVG Export Plug-In . SVG Version: 6.00 Build 0)  -->
<!DOCTYPE svg PUBLIC "-//W3C//DTD SVG 1.1//EN" "http://www.w3.org/Graphics/SVG/1.1/DTD/svg11.dtd">
<svg version="1.1" id="Layer_1" xmlns="http://www.w3.org/2000/svg" xmlns:xlink="http://www.w3.org/1999/xlink" x="0px" y="0px"
	 viewBox="190.5 190.5 80 80" style="enable-background:new 190.5 190.5 80 80;" xml:space="preserve">
<rect x="190.5" y="190.5" style="fill:#CBCBCB;" width="80" height="80"/>
<path style="fill:#FFFFFF;" d="M201.5,257.7c0,0,6-5.3,8.3-7.6c0.1-0.1,0.1-0.1,0.2-0.2c7,2.6,21.1-3.4,33.7-14.6
	c0.4-0.3,0.3-0.2,0.7-0.5l-13.5-3l17.5-1.1l0.2-0.2c13.3-12.4,10.8-27.2,10.8-27.2s-16.5,0.2-30.3,8.2l-1,13.1l-3.3-10.1
	c-0.9,0.6-1.2,0.8-2,1.6c-2.9,2.6-5,4.8-7.3,7.4l1.5,10.1l-4.8-6.1c-6.1,8.5-8.3,16.5-5.1,20.5c-0.4,0.5-0.7,1-1.1,1.5
	C203,254.1,201.5,257.7,201.5,257.7z M209.5,247.6c0,0,16.8-26.3,45.6-37.8C255.1,209.8,229.2,223.6,209.5,247.6z"/>
</svg>
