<?xml version="1.0" encoding="utf-8"?>
<!-- Generator: Adobe Illustrator 19.2.1, SVG Export Plug-In . SVG Version: 6.00 Build 0)  -->
<svg version="1.1" id="Layer_1" xmlns="http://www.w3.org/2000/svg" xmlns:xlink="http://www.w3.org/1999/xlink" x="0px" y="0px"
	 width="80px" height="80px" viewBox="0 0 80 80" style="enable-background:new 0 0 80 80;" xml:space="preserve">
<style type="text/css">
	.st0{fill:#FFFFFF;}
</style>
<g>
	<path class="st0" d="M19,57.1c19.7-24,45.6-37.8,45.6-37.8C35.8,30.8,19,57.1,19,57.1z"/>
	<path class="st0" d="M0,0v80h80V0H0z M58.1,40l-0.2,0.2l-17.5,1.1l13.5,3c-0.4,0.3-0.3,0.2-0.7,0.5C40.6,56,26.5,62,19.5,59.4
		c-0.1,0.1-0.1,0.1-0.2,0.2C17,61.9,11,67.2,11,67.2s1.5-3.6,4.5-8.2c0.4-0.5,0.7-1,1.1-1.5c-3.2-4-1-12,5.1-20.5l4.8,6.1L25,33
		c2.3-2.6,4.4-4.8,7.3-7.4c0.8-0.8,1.1-1,2-1.6l3.3,10.1l1-13.1c13.8-8,30.3-8.2,30.3-8.2S71.4,27.6,58.1,40z"/>
</g>
</svg>
