<?xml version="1.0" encoding="utf-8"?>
<!-- Generator: Adobe Illustrator 19.2.1, SVG Export Plug-In . SVG Version: 6.00 Build 0)  -->
<svg version="1.1" id="Layer_1" xmlns="http://www.w3.org/2000/svg" xmlns:xlink="http://www.w3.org/1999/xlink" x="0px" y="0px"
	 width="80px" height="80px" viewBox="0 0 80 80" style="enable-background:new 0 0 80 80;" xml:space="preserve">
<style type="text/css">
	.st0{fill:#FFFFFF;}
</style>
<path class="st0" d="M0,0v80h80V0H0z M43.4,62.5c0,7.8-4.6,11.3-11.2,11.3c-5.9-0.1-9.4-3.2-11.2-6.9l6.1-3.7
	c1.2,2.1,2.3,3.9,4.8,3.9s4-1,4-4.7V36.8h7.5V62.5z M61.2,73.9c-6.9-0.2-11.4-3.5-13.6-7.9l6.1-3.5c1.6,2.6,3.7,4.6,7.4,4.6
	c3.1,0,5.1-1.6,5.1-3.7c0-2.6-2-3.5-5.5-5l-1.9-0.8c-5.4-2.3-9-5.2-9-11.3c0-5.6,4.3-9.9,11-9.9c4.8,0,8.2,1.7,10.7,6l-5.9,3.8
	c-1.3-2.3-2.7-3.2-4.8-3.2c-2.2,0-3.6,1.4-3.6,3.2c0,2.3,1.4,3.2,4.6,4.6l1.9,0.8c6.4,2.7,10,5.5,10,11.8
	C73.7,70.2,68.4,73.9,61.2,73.9z"/>
</svg>
