<?xml version="1.0" encoding="utf-8"?>
<!-- Generator: Adobe Illustrator 18.0.0, SVG Export Plug-In . SVG Version: 6.00 Build 0)  -->
<!DOCTYPE svg PUBLIC "-//W3C//DTD SVG 1.1//EN" "http://www.w3.org/Graphics/SVG/1.1/DTD/svg11.dtd">
<svg version="1.1" id="Layer_1" xmlns="http://www.w3.org/2000/svg" xmlns:xlink="http://www.w3.org/1999/xlink" x="0px" y="0px"
	 viewBox="88 88 80 80" style="enable-background:new 88 88 80 80;" xml:space="preserve">
<g>
	<path style="fill:#2c3e50;" d="M88,88h80v80H88V88z"/>
	<path style="fill:#FFFFFF;" d="M109,154.9l6.1-3.7c1.2,2.1,2.3,3.9,4.8,3.9c2.5,0,4-1,4-4.7v-25.6h7.5v25.7
		c0,7.8-4.6,11.3-11.2,11.3C114.3,161.7,110.8,158.6,109,154.9"/>
	<path style="fill:#FFFFFF;" d="M135.6,154l6.1-3.5c1.6,2.6,3.7,4.6,7.4,4.6c3.1,0,5.1-1.6,5.1-3.7c0-2.6-2-3.5-5.5-5l-1.9-0.8
		c-5.4-2.3-9-5.2-9-11.3c0-5.6,4.3-9.9,11-9.9c4.8,0,8.2,1.7,10.7,6l-5.9,3.8c-1.3-2.3-2.7-3.2-4.8-3.2c-2.2,0-3.6,1.4-3.6,3.2
		c0,2.3,1.4,3.2,4.6,4.6l1.9,0.8c6.4,2.7,10,5.5,10,11.8c0,6.8-5.3,10.5-12.5,10.5C142.3,161.7,137.8,158.4,135.6,154"/>
</g>
</svg>
